<svg xmlns="http://www.w3.org/2000/svg" xmlns:xlink="http://www.w3.org/1999/xlink" x="0" y="0" version="1.1" viewBox="-159 -584 880 1280" xml:space="preserve" style="enable-background:new -159 -584 880 1280"><style>.st0{fill:#169cee}.st1{fill:#0e69a1}.st2{fill:#555574}.st3{fill:#3a3a59}.st5{fill:none;stroke:#3a3a59;stroke-width:8;stroke-miterlimit:10}.st6{stroke-linejoin:round}.st6,.st7,.st8,.st9{fill:none;stroke:#0e69a1;stroke-width:8;stroke-miterlimit:10}.st8,.st9{stroke:#3a3a59;stroke-width:12}.st9{stroke-linecap:round;stroke-linejoin:round}.st10{fill:#4bbc6e}.st11{opacity:.3;fill:#fff;enable-background:new}.st12{fill:none;stroke:#0e69a1;stroke-width:8;stroke-linecap:round;stroke-miterlimit:10}.st13{fill:#db3b61}</style><g id="phone1Background"><g><rect width="240" height="240" x="406.9" y="456.6" class="st0"/><polygon points="420.3 677.3 500.3 538.8 580.3 677.3" class="st1"/><polygon points="511.6 677.3 564.9 585 618.3 677.3" class="st1"/><circle cx="596.1" cy="507.4" r="24.1" class="st1"/></g><g><rect width="144" height="144" x="575.1" y="552.3" class="st2"/><rect width="125" height="46" x="584.1" y="562.3" class="st0"/><rect width="83" height="8" x="616.1" y="616.3" class="st0"/><rect width="91" height="8" x="584.1" y="680.3" class="st0"/><rect width="96" height="8" x="584.1" y="664.3" class="st0"/><rect width="110" height="8" x="584.1" y="648.3" class="st0"/><rect width="70" height="8" x="616.1" y="632.3" class="st0"/><rect width="24" height="24" x="584.1" y="616.3" class="st0"/></g><path d="M278.7,660.6V335c0-19.9,16.1-36,36-36h123.6c19.9,0,36,16.1,36,36v325.6c0,19.9-16.1,36-36,36H314.7 C294.8,696.6,278.7,680.5,278.7,660.6z" class="st3"/><circle cx="376.6" cy="674.8" r="12" class="st13"/></g><g id="crane"><line x1="54.9" x2="474.9" y1="-18.4" y2="60.1" class="st5"/><polyline points="476.3 59.5 425.3 82.2 374.4 55.8 323.4 82.2 272.5 54 221.5 82.2 170.5 51.3 119.6 82.2" class="st6"/><line x1="-152" x2="54.9" y1="56.7" y2="-18.4" class="st5"/><polyline points="-154.6 54 -103.6 82.2 -52.7 51.3 -1.7 82.2" class="st6"/><rect width="639.1" height="22.2" x="-158.6" y="82.2" class="st1"/><polygon points="89.5 454.8 89.5 291 84 291 84 104 29.4 104 29.4 291 24 291 24 454.8 18.5 454.8 18.5 616.6 94.9 616.6 94.9 454.8" class="st1"/><polygon points="206.5 651.6 164.1 651.6 164.1 610.3 -44.9 610.3 -44.9 651.6 -84.7 651.6 -84.7 697.2 -44.9 697.2 -44.9 697.3 164.1 697.3 164.1 697.2 206.5 697.2" class="st0"/><line x1="-1.7" x2="119.6" y1="50.4" y2="48.5" class="st6"/><polygon points="-52.7 51.3 -1.7 49.4 -1.7 100.4 -52.7 100.4" class="st6"/><polygon points="-103.6 53.1 -52.7 51.3 -52.7 100.4 -103.6 100.4" class="st6"/><polygon points="-154.6 54 -103.6 53.1 -103.6 100.4 -154.6 100.4" class="st6"/><polygon points="170.5 51.3 119.6 49.4 119.6 100.4 170.5 100.4" class="st6"/><polygon points="221.5 53.1 170.5 51.3 170.5 100.4 221.5 100.4" class="st6"/><polygon points="272.5 54 221.5 53.1 221.5 100.4 272.5 100.4" class="st6"/><polygon points="323.4 54.9 272.5 54 272.5 100.4 323.4 100.4" class="st6"/><polygon points="374.4 55.8 323.4 54.9 323.4 100.4 374.4 100.4" class="st6"/><polygon points="425.3 57.6 374.4 55.8 374.4 100.4 425.3 100.4" class="st6"/><polygon points="476.3 59.5 425.3 57.6 425.3 100.4 476.3 100.4" class="st6"/><polygon points="54.9 -8.3 25.8 59 84 59" class="st7"/><line x1="471.6" x2="-152" y1="96.8" y2="96.8" class="st5"/><polygon points="54.9 47.4 65 15 44.8 15" class="st6"/><g><line x1="-44.9" x2="164.1" y1="610.1" y2="610.1" class="st8"/><polyline points="158.1 609.1 158.1 577.1 -38.9 577.1 -38.9 609.1" class="st9"/><line x1="-14.9" x2="-14.9" y1="610.1" y2="577.1" class="st8"/><path d="M4,577.1" class="st8"/><path d="M4,609.8" class="st8"/><line x1="14.1" x2="14.1" y1="610.1" y2="577.1" class="st8"/><line x1="43.1" x2="43.1" y1="610.1" y2="577.1" class="st8"/><line x1="72.1" x2="72.1" y1="610.1" y2="577.1" class="st8"/><line x1="101.1" x2="101.1" y1="610.1" y2="577.1" class="st8"/><line x1="129.1" x2="129.1" y1="610.1" y2="577.1" class="st8"/><path d="M-133,658.8" class="st8"/><path d="M-133,697.2" class="st8"/><path d="M-11.8,585.6" class="st8"/></g><polygon points="115.4 28.9 132.5 78.9 119.5 104 -5.4 104 -5.4 45.4 50.8 45.4 67 28.3" class="st0"/><polygon points="109 35.7 123.6 79.4 71.6 79.4 71.6 35.1" class="st10"/><rect width="32.8" height="3.6" x="1.9" y="66.7" class="st2"/><rect width="32.8" height="3.6" x="1.9" y="77.6" class="st2"/><rect width="32.8" height="3.6" x="1.9" y="55.8" class="st2"/><polygon points="109 35.7 123.6 79.4 71.6 79.4 71.6 73.1" class="st11"/><line x1="54.9" x2="54.9" y1="-8.3" y2="-22.8" class="st12"/></g></svg>