<svg xmlns="http://www.w3.org/2000/svg" xmlns:xlink="http://www.w3.org/1999/xlink" x="0" y="0" class="headerRight" version="1.1" viewBox="-111 -584 976 1280" xml:space="preserve" style="enable-background:new -111 -584 976 1280"><style>.st1{fill:#3a3a59}.st2{fill:#0e69a1}.st3{fill:#169cee}.st6{fill:#555574}.st8{fill:#ef3f61}.st14{stroke-linejoin:round}.st14,.st15{fill:none;stroke:#3a3a59;stroke-width:8;stroke-linecap:round;stroke-miterlimit:10}.st16{opacity:.3;fill:#fff;enable-background:new}.st17{fill:none;stroke:#0e69a1;stroke-width:8;stroke-linecap:round;stroke-miterlimit:10}</style><g class="hoistStatic"><rect width="136.9" height="67.9" x="670.5" y="471.2" class="st1"/><polygon points="803.6 471.2 673.5 471.2 365.4 24.2" class="st14"/><polygon points="819.3 617.1 567.6 617.1 567.6 560.8 642.9 482.2 719 482.2 748 539.1 819.3 539.1" class="st3"/><polygon points="686.4 561.1 584.3 561.1 651.3 490.2 685.8 490.2" class="st8"/><polygon points="686.5 561.1 584.3 561.1 651.3 490.2 686.5 490.2" class="st8"/><path d="M865.3,661.5c0,19-15.4,34.5-34.5,34.5H550.1c-19,0-34.5-15.4-34.5-34.5l0,0c0-19,15.4-34.5,34.5-34.5h280.7 C849.9,627.1,865.3,642.5,865.3,661.5L865.3,661.5z" class="st6"/><path d="M855.3,661.5c0,13.5-11,24.5-24.5,24.5H550.1c-13.5,0-24.5-11-24.5-24.5l0,0c0-13.5,11-24.5,24.5-24.5h280.7 C844.3,637.1,855.3,648,855.3,661.5L855.3,661.5z" class="st1"/><rect width="224.8" height="10" x="578.6" y="617.1" class="st1"/><line x1="365.4" x2="736.5" y1="24.6" y2="471.5" class="st15"/><polygon points="652.9 560.8 607.7 560.6 678 490.2 686.5 490.2 686.5 527.3" class="st16"/><rect width="53" height="7" x="748.4" y="553.1" class="st2"/><rect width="53" height="7" x="748.4" y="573.1" class="st2"/><rect width="53" height="7" x="748.4" y="593.1" class="st2"/><rect width="17" height="5" x="661.5" y="569.1" class="st2"/><rect width="5" height="5" x="661.5" y="574.1" class="st2"/><line x1="570.6" x2="567.6" y1="578.1" y2="578.1" class="st17"/><line x1="570.6" x2="567.6" y1="604.1" y2="604.1" class="st17"/><line x1="570.6" x2="567.6" y1="591.1" y2="591.1" class="st17"/><line x1="803.6" x2="608" y1="471.5" y2="376.4" class="st14"/><line x1="706" x2="554.1" y1="371.6" y2="298.3" class="st14"/><line x1="633.8" x2="514.4" y1="298.3" y2="240.7" class="st14"/><line x1="574.1" x2="481.3" y1="237.4" y2="192.6" class="st14"/><line x1="529.9" x2="457" y1="192.6" y2="157.4" class="st14"/><line x1="493.5" x2="438.8" y1="157.4" y2="131" class="st14"/><line x1="466.7" x2="421.6" y1="127.9" y2="106.1" class="st14"/><line x1="673.5" x2="706" y1="471.5" y2="372.9" class="st14"/><line x1="608" x2="633.8" y1="376.9" y2="298.3" class="st14"/><line x1="554.1" x2="574.2" y1="298.3" y2="237.4" class="st14"/><line x1="514.4" x2="530.2" y1="240.7" y2="192.6" class="st14"/><line x1="481.3" x2="493.6" y1="192.6" y2="155.2" class="st14"/><line x1="457" x2="466.7" y1="157.4" y2="127.9" class="st14"/><line x1="438.8" x2="446.6" y1="131" y2="107.3" class="st14"/></g></svg>