<svg xmlns="http://www.w3.org/2000/svg" xmlns:xlink="http://www.w3.org/1999/xlink" id="Layer_1" x="0" y="0" version="1.1" viewBox="-239 -1224 720 1920" xml:space="preserve" style="enable-background:new -239 -1224 720 1920"><style type="text/css">.st0,.st1{fill:none;stroke-miterlimit:10}.st0{stroke:#3a3a59;stroke-width:16;stroke-linecap:round}.st1{stroke:#0e69a1;stroke-width:8}.st2{fill:#3a3a59}.st3{fill:#159cee}</style><line x1="-155.2" x2="-155.2" y1="517.1" y2="497.1" class="st0"/><line x1="-155.2" x2="-155.2" y1="449.8" y2="-1224" class="st1"/><line x1="-155.2" x2="-155.2" y1="458" y2="498.6" class="st1"/><path d="M-139.9,451.5l-10.9,18.8c-2,3.4-6.9,3.4-8.9,0l-10.8-18.8c-2-3.4,0.5-7.7,4.4-7.7h21.8	C-140.4,443.8-138,448.1-139.9,451.5z" class="st2"/><path d="M-146.1,490.4h-18.3c-2.2,0-4,1.8-4,4v8.4c0,2.2,1.8,4,4,4h18.3c2.2,0,4-1.8,4-4v-8.4	C-142.1,492.2-143.9,490.4-146.1,490.4z" class="st2"/><circle cx="-155.2" cy="466.6" r="2.8" class="st3"/><circle cx="-163.5" cy="450.1" r="2.8" class="st3"/><circle cx="-147" cy="450.1" r="2.8" class="st3"/></svg>