<svg xmlns="http://www.w3.org/2000/svg" xmlns:xlink="http://www.w3.org/1999/xlink" id="Layer_1" x="0" y="0" version="1.1" viewBox="-188.7 497.7 112 109.1" xml:space="preserve" style="enable-background:new -188.7 497.7 112 109.1"><style type="text/css">.st0{fill:#4bbc6e}</style><g id="pushOne"><g><path d="M-103,558.6c-19.1,0-34.6-15.5-34.6-34.6c0-3.4,0.5-6.8,1.5-9.9h-33.8c-10.4,0-18.8,8.4-18.8,18.8V588 c0,10.4,8.4,18.8,18.8,18.8h55.1c10.4,0,18.8-8.4,18.8-18.8v-30.1C-98.3,558.3-100.6,558.6-103,558.6z" class="st0"/></g><path d="M-103,497.7c-14.5,0-26.3,11.8-26.3,26.3c0,14.5,11.8,26.3,26.3,26.3s26.3-11.8,26.3-26.3 S-88.5,497.7-103,497.7z M-103,538c-7.7,0-14-6.3-14-14s6.3-14,14-14s14,6.3,14,14S-95.3,538-103,538z" class="st0"/></g></svg>