<svg xmlns="http://www.w3.org/2000/svg" xmlns:xlink="http://www.w3.org/1999/xlink" x="0" y="0" class="headerRight" version="1.1" viewBox="-111 -584 976 1280" xml:space="preserve" style="enable-background:new -111 -584 976 1280"><style>.st0{fill:none;stroke:#3a3a59;stroke-width:12;stroke-miterlimit:10}.st1{fill:#3a3a59}.st2{fill:#0e69a1}.st3{fill:#169cee}.st4{fill:#f15732}.st5{fill:#fff}.st6{fill:#555574}.st7{fill:#4bbc6e}</style><g id="scaffold"><line x1="119.3" x2="-32.3" y1="697.4" y2="604.6" class="st0"/><line x1="-32.3" x2="119.3" y1="697.4" y2="604.6" class="st0"/><line x1="119.3" x2="-32.3" y1="576.2" y2="483.4" class="st0"/><line x1="-32.3" x2="119.3" y1="576.2" y2="483.4" class="st0"/><rect width="8.8" height="242" x="119.3" y="455.1" class="st1"/><rect width="8.8" height="242" x="-41.1" y="455.1" class="st1"/><rect width="15.6" height="27.7" x="115.9" y="669.7" class="st2"/><rect width="15.6" height="27.7" x="-44.5" y="669.7" class="st2"/><rect width="169.2" height="9.6" x="-41.1" y="595" class="st2"/><rect width="191.5" height="19.2" x="-52.3" y="576.2" class="st3"/><rect width="169.2" height="9.6" x="-41.1" y="473.8" class="st2"/><rect width="191.5" height="19.2" x="-52.3" y="455" class="st3"/><g><path d="M-53.3,622.7c11.8,7.4,15.7,23,8.7,35.1c-4.3,7.3-11.5,11.8-19.2,12.8c-3.9,0.5-7.3,2.8-9.5,6.1l-3.5,5.5 l0,0c-3.6,5.6-11.1,7.3-16.7,3.7c-5.6-3.6-7.3-11.1-3.7-16.7l0,0l3.7-5.8c2.1-3.3,2.6-7.4,1.4-11.1c-2.1-7-1.3-14.9,3-21.6 C-81.3,618.7-65.4,615.2-53.3,622.7z" class="st4"/><circle cx="-71.6" cy="629.8" r="6.7" class="st5"/><rect width="24.4" height="18" x="-104" y="674.4" class="st6" transform="matrix(-0.8421 -0.5394 0.5394 -0.8421 -537.6954 1209.2786)"/></g></g><g id="phone2"><g><path d="M291.8,696H106.3c-17.7,0-32-14.3-32-32V248c0-17.7,14.3-32,32-32h185.5c17.7,0,32,14.3,32,32v416 C323.8,681.7,309.5,696,291.8,696z" class="st1"/><path d="M223.6,675.7h-49c-5,0-9.2-4.1-9.2-9.2v-6.1c0-5,4.1-9.2,9.2-9.2h49c5,0,9.2,4.1,9.2,9.2v6.1 C232.8,671.6,228.6,675.7,223.6,675.7z" class="st7"/></g></g></svg>